<svg width="734" height="396" fill="none" xmlns="http://www.w3.org/2000/svg"><path d="M11.395 396c-15.016 0-13.904-7.787-1.668-20.022 92.882-91.214 201.337-187.989 223.584-276.422 10.011-40.601-5.562-72.303-39.489-72.303-32.814 0-59.511 15.017-100.112 61.18-7.786 8.898-13.904 7.786-6.118-3.338C128.193 27.254 168.238 0 211.064 0c54.506 0 81.202 37.82 67.298 92.882-21.691 87.876-151.837 188.545-216.91 246.944-23.36 21.135-10.012 27.253 2.78 27.253h15.573c71.192 0 103.45-10.568 144.051-46.719 20.023-17.798 25.584-14.461 12.236 7.786C211.064 368.747 178.806 396 147.103 396H11.395Zm525.814 4c-53.594 0-38.21-56.075-14.391-56.075 24.812 0 5.955 39.203 36.722 39.203 63.023 0 96.767-56.075 110.662-111.654 13.894-56.075-17.369-88.331-82.376-67.489-12.406 3.97-15.384-2.481-2.978-9.429 68.482-39.203 104.707-78.406 113.639-114.135 8.933-36.226-8.436-50.617-34.737-50.617-26.797 0-57.563 13.895-82.872 53.098-5.458 7.94-12.406 6.948-6.451-3.97C602.217 27.82 645.886 4 679.63 4c40.196 0 62.527 24.812 51.609 68.977-7.443 28.782-34.737 51.609-68.481 76.918-9.925 7.443-8.436 17.368-.496 21.338 33.248 15.384 56.571 41.188 45.158 86.346C691.54 321.594 610.653 400 537.209 400Z" fill="#fff"/></svg>