<svg width="648" height="397" fill="none" xmlns="http://www.w3.org/2000/svg"><path d="M-30.69 397c-15.04 0-13.925-7.798-1.67-20.052 93.022-91.352 201.641-188.274 223.922-276.841 10.027-40.662-5.57-72.412-39.548-72.412-32.865 0-59.602 15.04-100.265 61.272-7.798 8.912-13.925 7.798-6.127-3.342C86.285 27.695 126.391.4 169.281.4c54.588 0 81.326 37.878 67.4 93.023-21.724 88.01-152.067 188.831-217.239 247.318-23.395 21.167-10.026 27.294 2.785 27.294h15.597c71.299 0 103.606-10.583 144.269-46.79 20.053-17.824 25.623-14.482 12.254 7.799C169.281 369.706 136.974 397 105.224 397H-30.69Zm509.986 13c-57.188 0-86.861-83.084-58.267-198C449.623 97.085 521.378 14 578.566 14s86.861 83.085 58.267 198c-28.594 114.916-100.349 198-157.537 198Zm4.856-18.343c41.003 0 80.926-69.597 108.441-179.657 27.515-110.06 22.12-179.657-18.883-179.657-41.002 0-80.926 69.597-108.441 179.657-27.515 110.06-22.12 179.657 18.883 179.657Z" fill="#fff"/></svg>